# xmcd
#
# Track frame offsets:
#	150
#	12247
#	23615
#	35120
#	47607
#	58410
#	70745
#	81380
#	96165
#	107377
#	121357
#	130950
#	142910
#	153312
#	168097
#	178220
#	191865
#	206475
#	219022
#	232635
#	244912
#	256820
#	269052
#	280582
#	293902
#
# Disc length: 4058
#
# Revision: 4
# Processed by: cddbd v1.5.1PL0 Copyright (c) Steve Scherf et al.
# Submitted via: EasyCDDAExtractor 5.0.6
# Normalized: r3:DSETVAR1
#
DISCID=630fd819
DTITLE=Various Artist - 50 Number One Country Hits [CD2]
DYEAR=1900
DGENRE=Country
TTITLE0=Charlie Rich - The Most Beautiful Girl
TTITLE1=Sonny James - Young Love
TTITLE2=Donna Fargo - The Happiest Girl In The Whole U.S.A.
TTITLE3=Porter Wagoner - A Satisfied Mind
TTITLE4=Faron Young - Hello Walls
TTITLE5=Hank Williams - Lovesick Blues
TTITLE6=Leroy Van Dyke - Walk On By
TTITLE7=Jeanne Pruett - Satin Sheets
TTITLE8=Roger Miller - King Of The Road
TTITLE9=Lefty Frizzell - Always Late (With Your Kisses)
TTITLE10=Tom T. Hall - I Love
TTITLE11=Loretta Lynn - One's On The Way
TTITLE12=Ferlin Husky - Wings Of A Dove
TTITLE13=Waylon Jennings - Luckenbach, Texas (Back To The Basics Of Love)
TTITLE14=Statler Brothers - Do You Know You Are My Sunshine
TTITLE15=Pee Wee King - Slow Poke
TTITLE16=Jeannie C. Riley - Harper Valley P.T.A.
TTITLE17=Jimmy Wakely - One Has My Name (The Other Has My Heart)
TTITLE18=Merle Travis - Divorce Me C.O.D.
TTITLE19=Hank Thompson - The Wild Side Of Life
TTITLE20=Tennessee Ernie Ford - Sixteen Tons
TTITLE21=Johnny Cash - I Walk The Line
TTITLE22=Sammi Smith - Help Me Make It Through The Night
TTITLE23=George Morgan - Candy Kisses
TTITLE24=Everly Brothers - Bye Bye Love
EXTD=
EXTT0=Charlie Rich
EXTT1=Sonny James
EXTT2=Donna Fargo
EXTT3=Porter Wagoner
EXTT4=Faron Young
EXTT5=Hank Williams, Sr.
EXTT6=Leroy Van Dyke
EXTT7=Jeanne Pruett
EXTT8=Roger Miller
EXTT9=Lefty Frizzell
EXTT10=Tom T. Hall
EXTT11=Loretta Lynn
EXTT12=Ferlin Husky
EXTT13=Waylon Jennings
EXTT14=The Statler Brothers
EXTT15=Pee Wee King
EXTT16=Jeannie C. Riley
EXTT17=Jimmy Wakely
EXTT18=Merle Travis
EXTT19=Hank Thompson
EXTT20=Tennessee Ernie Ford
EXTT21=Johnny Cash
EXTT22=Sammi Smith
EXTT23=George Morgan
EXTT24=Everly Brothers
PLAYORDER=
